<?xml version="1.0" standalone="no"?><!DOCTYPE svg PUBLIC "-//W3C//DTD SVG 1.1//EN" "http://www.w3.org/Graphics/SVG/1.1/DTD/svg11.dtd"><svg t="1611026648533" class="icon" viewBox="0 0 1024 1024" version="1.1" xmlns="http://www.w3.org/2000/svg" p-id="8132" xmlns:xlink="http://www.w3.org/1999/xlink" width="200" height="200"><defs><style type="text/css"></style></defs><path d="M744.6 785.2h-464c-49.3 0-89.4-40.1-89.4-89.4V328.5c0-49.3 40.1-89.4 89.4-89.4h463.9c49.3 0 89.4 40.1 89.4 89.4v367.2c0.1 49.3-40 89.5-89.3 89.5z m-464-492.7c-19.8 0-35.9 16.1-35.9 35.9v367.2c0 19.8 16.1 35.9 35.9 35.9h463.9c19.8 0 35.9-16.1 35.9-35.9V328.5c0-19.8-16.1-35.9-35.9-35.9H280.6z" p-id="8133"></path><path d="M591.4 493.9l-121.1-96.3c-15.7-12.5-38.9-1.3-38.9 18.8v192.7c0 20.1 23.2 31.3 38.9 18.8l121.1-96.3c12.1-9.7 12.1-28.1 0-37.7z" p-id="8134"></path></svg>