<?xml version="1.0" standalone="no"?><!DOCTYPE svg PUBLIC "-//W3C//DTD SVG 1.1//EN" "http://www.w3.org/Graphics/SVG/1.1/DTD/svg11.dtd"><svg t="1610939515170" class="icon" viewBox="0 0 1419 1024" version="1.1" xmlns="http://www.w3.org/2000/svg" p-id="10568" xmlns:xlink="http://www.w3.org/1999/xlink" width="277.1484375" height="200"><defs><style type="text/css"></style></defs><path d="M709.085308 362.800646c-80.858921 0-148.949855 65.962936-148.949855 148.949854s65.962936 148.949855 148.949855 148.949855c80.858921 0 148.949855-65.963936 148.949854-148.949855 0-80.858921-65.963936-148.949855-148.949854-148.949854zM487.788524 241.512764a58.132943 58.132943 0 0 0-57.451944-57.451944c-14.894985 0-29.789971 6.382994-40.429961 17.022984-80.857921 82.985919-127.670875 193.634811-127.670875 310.666696s46.812954 227.679778 127.670875 308.539699c21.278979 21.277979 57.451944 21.277979 78.730923 0s21.278979-57.452944 0-78.730923c-125.543877-125.543877-125.543877-331.945676 0-459.617551 12.766988-10.63999 19.149981-25.533975 19.149982-40.429961zM113.285889 511.7505c0-157.461846 61.70794-304.283703 172.355832-414.931595 21.278979-21.278979 21.278979-57.452944 0-78.730923s-57.451944-21.278979-78.729923 0C74.982927 147.887856 0.508 326.627681 0.508 511.7505s74.474927 363.863645 204.2748 493.662518c21.277979 21.278979 57.451944 21.278979 78.729923 0s21.278979-57.451944 0-78.729923C174.993829 816.032203 113.285889 669.210346 113.285889 511.7505z m912.849109-308.539698c-21.277979-21.277979-57.450944-21.277979-78.729923 0s-21.278979 57.452944 0 78.730923c61.70794 61.70794 95.753906 142.566861 95.753906 229.808775 0 85.113917-34.045967 168.099836-95.753906 229.808776-14.894985 14.894985-19.149981 34.044967-14.894986 55.323946 4.255996 19.149981 21.278979 34.045967 40.429961 40.42996 19.149981 4.254996 40.428961 0 55.323946-14.895985 82.985919-82.985919 127.670875-193.634811 127.670875-308.539699s-46.812954-229.807776-129.799873-310.666696z m340.457667 44.684956c-34.045967-87.241915-87.241915-165.971838-153.20585-231.935774-21.277979-21.278979-57.451944-21.278979-78.729923 0s-21.278979 57.451944 0 78.729924c108.519894 112.77689 170.227834 259.599746 170.227834 417.059592s-61.70794 304.284703-172.355832 414.932595c-14.894985 14.894985-19.150981 34.045967-14.894985 55.324946 4.254996 19.149981 21.277979 34.044967 40.42896 40.428961 19.149981 4.255996 40.429961 0 55.323946-14.894986 197.890807-200.018805 257.470749-497.918514 153.20585-759.645258z" p-id="10569"></path></svg>