<?xml version="1.0" standalone="no"?><!DOCTYPE svg PUBLIC "-//W3C//DTD SVG 1.1//EN" "http://www.w3.org/Graphics/SVG/1.1/DTD/svg11.dtd"><svg t="1611037956387" class="icon" viewBox="0 0 1024 1024" version="1.1" xmlns="http://www.w3.org/2000/svg" p-id="1808" xmlns:xlink="http://www.w3.org/1999/xlink" width="200" height="200"><defs><style type="text/css"></style></defs><path d="M475.733 876.8c-215.466 0-390.4-174.933-390.4-390.4 0-215.467 174.934-392.533 390.4-392.533 215.467 0 390.4 174.933 390.4 390.4 2.134 217.6-174.933 392.533-390.4 392.533z m0-740.267C283.733 136.533 128 294.4 128 486.4s155.733 347.733 347.733 347.733S823.467 678.4 823.467 486.4 667.733 136.533 475.733 136.533z" fill="#444444" p-id="1809"></path><path d="M917.333 947.2c-4.266 0-10.666-2.133-14.933-4.267l-194.133-166.4c-8.534-8.533-10.667-21.333-2.134-29.866 8.534-8.534 21.334-10.667 29.867-2.134l194.133 166.4c8.534 8.534 10.667 21.334 2.134 29.867-2.134 4.267-8.534 6.4-14.934 6.4z" fill="#444444" p-id="1810"></path></svg>